<svg id="Layer_1" data-name="Layer 1" xmlns="http://www.w3.org/2000/svg" viewBox="0 0 532.71 533.58"><defs><style>.cls-1{fill:#fff;}.cls-2{stroke:#000;stroke-miterlimit:10;stroke-width:15px;}</style></defs><path class="cls-1" d="M389.32,125.47c.61,8.42,3.92,13.26,10,16.11,5.9,2.77,11.49,1.83,16.08-2.65,10.57-10.31,21.07-20.71,31.33-31.34,6.28-6.5,5.78-15-.67-21.28-6.28-6.1-14.61-6.42-20.93-.28-10.59,10.29-21.06,20.72-31.27,31.39C391.48,119.9,390.35,123.57,389.32,125.47Z"/><path class="cls-1" d="M451.35,434.45c-1-2-2.07-5.69-4.43-8.16q-15.44-16.16-31.56-31.67c-6.28-6.06-14.68-5.58-20.88.56s-6.77,14.65-.77,20.88c10.34,10.73,20.93,21.23,31.59,31.64,4.57,4.46,10.13,5.5,16,2.74C447.4,447.61,450.64,442.72,451.35,434.45Z"/><path class="cls-1" d="M142.54,125.58c-1-2-2.11-5.68-4.47-8.15C127.87,106.75,117.41,96.31,106.8,86c-6.5-6.29-15-5.81-21.28.62-6.11,6.27-6.45,14.62-.33,20.93,10.28,10.6,20.76,21,31.33,31.33,4.58,4.48,10.13,5.55,16,2.75C138.64,138.8,141.84,133.87,142.54,125.58Z"/><path class="cls-1" d="M124.54,390.21c-1.94,1.07-5.61,2.21-8.09,4.58q-16,15.33-31.37,31.29c-6.15,6.35-5.72,14.66.53,20.87s14.77,6.71,21,.74c10.76-10.36,21.27-21,31.69-31.69,4.47-4.59,5.39-10.2,2.51-16.08C137.83,393.89,132.85,390.77,124.54,390.21Z"/><path class="cls-1" d="M250.66,48.47c0,7.14-.14,14.27,0,21.41.24,9.35,6.45,15.39,15.4,15.29s14.95-6,15.09-15.08q.31-21.65,0-43.3c-.14-9.12-6.3-14.95-15.11-15-9.07,0-15.13,5.85-15.37,15.28C250.52,34.2,250.67,41.33,250.66,48.47Z"/><path class="cls-1" d="M484.13,251.51h-21.4c-9.07.31-15,6.19-15.18,15s5.94,15.36,15.2,15.47q21.39.24,42.81,0c9.37-.1,15.39-6.23,15.39-15.25s-6-15.06-15.41-15.23C498.41,251.41,491.27,251.51,484.13,251.51Z"/><path class="cls-1" d="M47.57,282c7.12,0,14.25.11,21.37,0,9.35-.18,15.4-6.26,15.41-15.24s-6-15.15-15.38-15.23c-14.25-.14-28.5.11-42.74-.1-8.06-.11-14.93,6.21-14.47,14.08.67,11.27,4.36,16.26,14.44,16.48C33.32,282.17,40.45,282,47.57,282Z"/><path class="cls-2" d="M262,521.8c-8.82-3.41-11.79-10-11.46-19.17.48-13.09-.07-26.22.23-39.32.25-11.38,10.95-18,21.5-13.63,5.19,2.15,8.65,6,8.74,11.65.25,15.75.24,31.52.05,47.28-.09,7.16-5.33,10.52-11.09,13.19Z"/><path class="cls-2" d="M266,413.28A146.51,146.51,0,1,1,412.46,266.63,146.58,146.58,0,0,1,266,413.28Zm-115.74-147A115.73,115.73,0,1,0,266.57,151.05,115.67,115.67,0,0,0,150.23,266.28Z"/><path class="cls-2" d="M389.32,125.47c1-1.9,2.16-5.57,4.52-8,10.21-10.67,20.68-21.1,31.27-31.39,6.32-6.14,14.65-5.82,20.93.28,6.45,6.25,6.95,14.78.67,21.28-10.26,10.63-20.76,21-31.33,31.34-4.59,4.48-10.18,5.42-16.08,2.65C393.24,138.73,389.93,133.89,389.32,125.47Z"/><path class="cls-2" d="M451.35,434.45c-.71,8.27-4,13.16-10,16-5.91,2.76-11.47,1.72-16-2.74-10.66-10.41-21.25-20.91-31.59-31.64-6-6.23-5.43-14.74.77-20.88s14.6-6.62,20.88-.56q16.09,15.53,31.56,31.67C449.28,428.76,450.32,432.48,451.35,434.45Z"/><path class="cls-2" d="M142.54,125.58c-.7,8.29-3.9,13.22-10,16.09-5.92,2.8-11.47,1.73-16-2.75-10.57-10.32-21-20.73-31.33-31.33-6.12-6.31-5.78-14.66.33-20.93,6.27-6.43,14.78-6.91,21.28-.62,10.61,10.27,21.07,20.71,31.27,31.39C140.43,119.9,141.5,123.61,142.54,125.58Z"/><path class="cls-2" d="M124.54,390.21c8.31.56,13.29,3.68,16.24,9.71,2.88,5.88,2,11.49-2.51,16.08-10.42,10.71-20.93,21.33-31.69,31.69-6.2,6-14.8,5.39-21-.74s-6.68-14.52-.53-20.87q15.4-15.91,31.37-31.29C118.93,392.42,122.6,391.28,124.54,390.21Z"/><path class="cls-2" d="M250.67,48.47c0-7.14-.15-14.27,0-21.41.24-9.43,6.3-15.33,15.37-15.28,8.81.06,15,5.89,15.11,15q.33,21.65,0,43.3c-.14,9.13-6.27,15-15.09,15.08s-15.16-5.94-15.4-15.29C250.52,62.74,250.66,55.61,250.67,48.47Z"/><path class="cls-2" d="M484.13,251.51c7.14,0,14.28-.1,21.41,0,9.4.17,15.4,6.19,15.41,15.23s-6,15.15-15.39,15.25q-21.4.19-42.81,0c-9.26-.11-15.37-6.52-15.2-15.47s6.11-14.71,15.18-15h21.4Z"/><path class="cls-2" d="M47.57,282c-7.12,0-14.25.13-21.37,0-10.08-.22-13.77-5.21-14.44-16.48-.46-7.87,6.41-14.19,14.47-14.08,14.24.21,28.49,0,42.74.1,9.33.08,15.39,6.25,15.38,15.23S78.29,281.84,68.94,282C61.82,282.15,54.69,282,47.57,282Z"/></svg>