<svg id="Layer_1" data-name="Layer 1" xmlns="http://www.w3.org/2000/svg" viewBox="0 0 278 289"><defs><style>.cls-1{fill:#fff;}.cls-2{fill:#666;}</style></defs><path class="cls-1" d="M159,237c3-.95,6-1.78,8.91-2.88,16.42-6.18,25.24-19.82,24.28-37.18a58,58,0,0,1,.22-10.95c1.21-8.91,6.51-14.82,13.34-20.66,20.35-17.41,27.32-40,20.07-65.72-7.12-25.29-24.75-40.26-50.51-45.56-1.45-.3-2.87-.7-4.31-1h58V237Z"/><path class="cls-2" d="M149,237c-2.53-.72-5.1-1.36-7.6-2.19a38.94,38.94,0,0,1-26.29-33.92c-.41-6.14,2.15-9.82,7-10.08s7.41,2.55,8,8.62c1,9.78,5.8,17,15.06,20.59s17.7,1.58,25.13-4.74c4.85-4.11,7-9.37,6.89-15.88a101.51,101.51,0,0,1,.88-18.87,38,38,0,0,1,15.43-24.83c16-11.92,22.24-28.14,18.83-47.38-3.5-19.77-15.68-32.89-35.1-38.24-30-8.26-59.53,13.44-61.13,44.62-.22,4.31-.93,8-5.68,9.36-5.32,1.46-9.71-2.27-9.45-8.36,1.1-25.06,12.72-43.83,34.9-55.42,6.78-3.54,14.69-4.91,22.07-7.28h13c1.44.35,2.86.75,4.31,1,25.76,5.3,43.39,20.27,50.51,45.56,7.25,25.71.28,48.31-20.07,65.72-6.83,5.84-12.13,11.75-13.34,20.66a58,58,0,0,0-.22,10.95c1,17.36-7.86,31-24.28,37.18C165,235.22,162,236.05,159,237Z"/><path class="cls-2" d="M142.25,166.27c-2.81,2.57-5.12,5-7.74,7-3.69,2.83-8,2.32-10.69-.92s-2.58-7.47.81-10.3c13.64-11.41,14-25.72,8.7-40.87a26.51,26.51,0,0,1-.26-17,35.55,35.55,0,0,1,66.76-3.36c5.73,13.55,2.56,29.54-8.28,39.42-2.12,1.94-5.52,3.56-8.22,3.4-2.11-.12-5.27-3-5.74-5.08a9.93,9.93,0,0,1,2.46-7.84c5.15-5.2,8-11,7.22-18.31-1-9.19-7.55-16.13-16.88-17.9A20.43,20.43,0,0,0,149,105.05a14.23,14.23,0,0,0-1.08,12c1.89,5.62,2.8,11.56,4.21,17.72,9.47-.14,16.81,3.78,19.65,13.64a17.44,17.44,0,0,1-7.23,19.3C156.94,172.63,149.48,171.7,142.25,166.27Z"/><path class="cls-2" d="M106.86,180.83c-.27,11.68-2.54,21.82-7.26,31.37-1.51,3.05-3.51,5.67-7.35,3.92-4-1.84-3.42-4.93-1.82-8.38,12.36-26.65,6-53.93-17-72.5-2.89-2.34-5.06-4.85-2.2-8.32s5.89-1.74,8.71.5C97.54,141.33,106.14,159.66,106.86,180.83Z"/><path class="cls-2" d="M85.13,187.18c-.58,2.91-1.6,8.61-2.89,14.25-.72,3.14-2.9,5.15-6.22,4.19s-4.45-3.5-3.41-7.08c5.4-18.4,1.28-34.48-12.09-48.2-2.48-2.54-3.05-5.32-.41-7.86s5.17-1.62,7.5.67C79.13,154.44,84.82,168.19,85.13,187.18Z"/><path class="cls-2" d="M58,186.38c-2.21-6.33-4.1-12.8-6.75-18.93-1.44-3.35-3.05-6.33.7-8.67s6.15.27,8.06,3.31a42.33,42.33,0,0,1,6.67,25.17c-.18,3.65-.34,8.05-5.59,7.75s-5.15-4.23-4.49-8.15Z"/></svg>