<svg id="Layer_1" data-name="Layer 1" xmlns="http://www.w3.org/2000/svg" viewBox="0 0 140 106"><path d="M73.78,52.92q0,15.18,0,30.37c0,4.89-1.09,9.37-5.71,11.9-4.93,2.68-9.35.66-13.38-2.3-7.08-5.2-13.93-10.73-21.18-15.68a22.35,22.35,0,0,0-9-3.06c-3.23-.51-6.62,0-9.93-.15C6.43,73.66.9,68.45.39,60.31a126,126,0,0,1,0-14.93c.47-8.2,6-14.46,14-13.63,12,1.25,21-3.26,29.44-10.9a112.56,112.56,0,0,1,11.51-8.68c3.81-2.68,8-4.34,12.55-1.92s5.82,6.58,5.84,11.32C73.8,32,73.77,42.47,73.78,52.92ZM64,17.56c-6.5,4.84-12.14,8.36-17,12.79-8.75,8-18.38,12.64-30.49,10.54a6.19,6.19,0,0,0-1.49,0c-3.37.22-5.15,2-5.14,5.41,0,4.31,0,8.62,0,12.93,0,3.75,2.08,5.39,5.64,5.42,3.81,0,7.64.23,11.43-.05A14.24,14.24,0,0,1,37.47,68c7,5.57,14.25,10.83,21.43,16.18,1.36,1,2.86,1.85,5.1,3.27Z"/><path d="M117.58,57.59H101.66c-3.28,0-6.18-.77-6.26-4.72s2.69-4.92,6-4.92c10.78,0,21.55,0,32.33,0,3.36,0,6.28,1,6.32,4.72,0,4.07-3.07,5-6.6,5C128.19,57.55,122.88,57.59,117.58,57.59Z"/><path d="M97.13,64c2.13.49,3.28.69,4.38,1,9.33,2.9,18.65,5.85,28,8.74,3.13,1,5.83,2.54,4.75,6.28-1.15,3.94-4.17,3.93-7.65,2.8-9.76-3.17-19.65-6-29.32-9.38C95.59,72.85,94,70,93.79,68,93.67,66.65,96.13,65.09,97.13,64Z"/><path d="M98,41.69c-1.35-1.2-3.69-2.32-4-3.86s.88-4.8,2.14-5.24q16.32-5.7,33-10.41c1.32-.37,4.29,1.51,4.83,3s-.62,4.89-1.8,5.31C121.14,34.38,110,37.84,98,41.69Z"/><path d="M89.45,79.56a42.15,42.15,0,0,1,4.8,2.57c6.41,4.67,12.74,9.44,19.13,14.13,2.69,2,4.49,4.33,2.19,7.47s-5.09,2.22-7.78.21C101.17,99,94.39,94.26,88,89.06c-1.43-1.16-2.17-3.9-2.11-5.88C85.92,82,88.11,80.83,89.45,79.56Z"/><path d="M118.07,3.76c.06,1.94-2,3.39-3.39,4.44-6.8,5-13.54,10.13-20.33,15.16-2.47,1.83-5.07,2.12-7-.5s-1.18-5.26,1.53-7.25c6.81-5,13.51-10.17,20.45-15a6.29,6.29,0,0,1,5.4-.69C116.36.51,118,2.06,118.07,3.76Z"/></svg>