<?xml version="1.0" encoding="utf-8"?>
<!-- Generator: Adobe Illustrator 26.0.3, SVG Export Plug-In . SVG Version: 6.00 Build 0)  -->
<svg version="1.1" id="Layer_1" xmlns="http://www.w3.org/2000/svg" xmlns:xlink="http://www.w3.org/1999/xlink" x="0px" y="0px"
	 viewBox="0 0 169 289" style="enable-background:new 0 0 169 289;" xml:space="preserve">
<style type="text/css">
	.st0{fill:#FFFFFF;}
	.st1{fill:#666666;}
</style>
<path class="st0" d="M-131.2,237c3-0.9,6-1.8,8.9-2.9c16.4-6.2,25.2-19.8,24.3-37.2c-0.3-3.6-0.2-7.3,0.2-10.9
	c1.2-8.9,6.5-14.8,13.3-20.7c20.4-17.4,27.3-40,20.1-65.7c-7.1-25.3-24.8-40.3-50.5-45.6c-1.4-0.3-2.9-0.7-4.3-1h58V237H-131.2z"/>
<path class="st1" d="M-141.2,237c-2.5-0.7-5.1-1.4-7.6-2.2c-14.8-5-25.1-18.4-26.3-33.9c-0.4-6.1,2.1-9.8,7-10.1
	c4.8-0.3,7.4,2.6,8,8.6c1,9.8,5.8,17,15.1,20.6s17.7,1.6,25.1-4.7c4.9-4.1,7-9.4,6.9-15.9c-0.3-6.3,0-12.6,0.9-18.9
	c1.6-10,7.2-18.9,15.4-24.8c16-11.9,22.2-28.1,18.8-47.4c-3.5-19.8-15.7-32.9-35.1-38.2c-30-8.3-59.5,13.4-61.1,44.6
	c-0.2,4.3-0.9,8-5.7,9.4c-5.3,1.5-9.7-2.3-9.4-8.4c1.1-25.1,12.7-43.8,34.9-55.4c6.8-3.5,14.7-4.9,22.1-7.3h13
	c1.4,0.3,2.9,0.8,4.3,1c25.8,5.3,43.4,20.3,50.5,45.6c7.2,25.7,0.3,48.3-20.1,65.7c-6.8,5.8-12.1,11.8-13.3,20.7
	c-0.4,3.6-0.5,7.3-0.2,10.9c1,17.4-7.9,31-24.3,37.2c-2.9,1.2-5.9,2-8.9,2.9H-141.2z"/>
<path class="st1" d="M-148,166.3c-2.8,2.6-5.1,5-7.7,7c-3.7,2.8-8,2.3-10.7-0.9s-2.6-7.5,0.8-10.3c13.6-11.4,14-25.7,8.7-40.9
	c-2-5.5-2-11.5-0.3-17c5.8-18.8,25.6-29.3,44.4-23.6c10.1,3.1,18.3,10.5,22.4,20.2c5.7,13.6,2.6,29.5-8.3,39.4
	c-2.1,1.9-5.5,3.6-8.2,3.4c-2.1-0.1-5.3-3-5.7-5.1c-0.4-2.8,0.5-5.7,2.5-7.8c5.1-5.2,8-11,7.2-18.3c-1-9.2-7.6-16.1-16.9-17.9
	c-8.7-1.4-17.3,2.8-21.4,10.5c-2.1,3.6-2.5,8-1.1,12c1.9,5.6,2.8,11.6,4.2,17.7c9.5-0.1,16.8,3.8,19.7,13.6
	c2.1,7.3-0.9,15.1-7.2,19.3C-133.3,172.6-140.8,171.7-148,166.3z"/>
<path class="st1" d="M-183.4,180.8c-0.3,11.7-2.5,21.8-7.3,31.4c-1.5,3.1-3.5,5.7-7.4,3.9c-4-1.8-3.4-4.9-1.8-8.4
	c12.4-26.6,6-53.9-17-72.5c-2.9-2.3-5.1-4.9-2.2-8.3s5.9-1.7,8.7,0.5C-192.7,141.3-184.1,159.7-183.4,180.8z"/>
<path class="st1" d="M-205.1,187.2c-0.6,2.9-1.6,8.6-2.9,14.2c-0.7,3.1-2.9,5.1-6.2,4.2c-3.3-1-4.4-3.5-3.4-7.1
	c5.4-18.4,1.3-34.5-12.1-48.2c-2.5-2.5-3.1-5.3-0.4-7.9s5.2-1.6,7.5,0.7C-211.1,154.4-205.4,168.2-205.1,187.2z"/>
<path class="st1" d="M-232.2,186.4c-2.2-6.3-4.1-12.8-6.8-18.9c-1.4-3.4-3-6.3,0.7-8.7s6.1,0.3,8.1,3.3c4.8,7.5,7.1,16.3,6.7,25.2
	c-0.2,3.6-0.3,8.1-5.6,7.8c-5.3-0.3-5.2-4.2-4.5-8.1L-232.2,186.4z"/>
<path class="st1" d="M84.5,232.5L84.5,232.5c-18.4,0-33.4-14.9-33.4-33.4V89.9c0-18.4,14.9-33.4,33.4-33.4h0
	c18.4,0,33.4,14.9,33.4,33.4v109.3C117.9,217.6,102.9,232.5,84.5,232.5z"/>
</svg>
