<svg id="Layer_1" data-name="Layer 1" xmlns="http://www.w3.org/2000/svg" viewBox="0 0 776.69 626.36"><defs><style>.cls-1{stroke:#000;stroke-miterlimit:10;stroke-width:5px;}</style></defs><path class="cls-1" d="M203.44,368.11c-26.24-8.12-55.17,5.14-61.87,34.31-11.92,35,9.15,57.18,33.88,64.49,29.26,8.65,54.8-5,63.47-34.32S234.4,377.69,203.44,368.11Zm-19.5,67.36c-6.89-1.93-14.12-15-12.12-21.86,2.51-8.66,15.44-16.4,23.4-14,6.76,2,14.52,16.76,12.43,23.61C205.12,431.47,192.67,437.92,183.94,435.47Z"/><path class="cls-1" d="M767.72,277.33,621,8.19l-.08,0,0-.07q-266.22,145.4-532.33,291c-25,13.67-49.48,28.19-74.08,42.53-5.85,3.41-7.4,8.55-5.43,14.88a33.34,33.34,0,0,0,2.62,5.74c28.29,52.46,56.39,105,85,157.31,15.18,27.75,31.17,55.07,47,82.49,1.39,2.4,4,4.12,6.46,6.63,3.53-.74,7-.77,9.75-2.17,17.1-8.66,34.17-17.39,51-26.53Q471.52,438.51,732.13,296.74l2.48-1.36ZM661,257.33q-17.6-32.16-35.61-64.08A85.44,85.44,0,0,0,617.11,181c-5.66-6.91-13-8-20.73-3.67-7.47,4.23-10.82,11.16-7.38,19.2,5.37,12.58,11.57,24.84,18,36.94,11.76,22.22,23.91,44.23,35.89,66.34.74,1.38,1.39,2.82,1.74,3.51l-45.48,25.21c-4.69-9.17-9.29-18.64-14.35-27.87-4.22-7.7-8.8-15.21-13.55-22.6s-13-9.37-20.68-5.38c-8,4.16-12,13-8.15,20.82,7.59,15.46,15.84,30.59,24,45.77,1.06,2,3,3.49,4.5,5.19L523.56,370c-.56-.88-1.43-2.11-2.15-3.43q-25.48-46.17-51-92.34a80.53,80.53,0,0,0-6.94-10.57c-5-6.44-11-7.58-18.1-3.87-8.9,4.65-12.68,11.33-10,19a100.3,100.3,0,0,0,6.78,14.85q23.63,43.89,47.47,87.65a45.5,45.5,0,0,0,3.53,4.9l-47.29,25.13c-4.92-9.85-10.24-20.94-16-31.81-3.27-6.21-7.09-12.14-10.91-18-4.93-7.63-13.44-9.58-21.62-5.23s-11.81,12.6-7.9,20.79c7.66,16,16,31.68,24.06,47.49.78,1.53,1.55,3.07,2.15,4.26l-44.45,24.47c-.76-1.21-1.63-2.46-2.36-3.79-17.86-32.31-35.61-64.67-53.69-96.86A25.87,25.87,0,0,0,305.9,343c-6.27-3.51-15.42-1.1-20.67,4.8C280.73,352.85,281,359,284,364.6q17.46,33.7,35.38,67.18c6.86,12.84,14.07,25.49,21,37.92l-176.5,96.19L51.44,359.79,604.91,58.05,717.05,263.72l-41.38,22C671.26,277.21,666.34,267.14,661,257.33Z"/></svg>