<svg id="Layer_1" data-name="Layer 1" xmlns="http://www.w3.org/2000/svg" viewBox="0 0 278 289"><defs><style>.cls-1{fill:#666;}.cls-2{fill:#fff;}</style></defs><path class="cls-1" d="M226,187c-2.49,1-5,2.86-7.46,2.87-38.31.19-76.62.14-114.93.12-6.26,0-7.6-1.35-7.6-7.61,0-38.31-.07-76.62.12-114.93C96.14,65,98,62.48,99,60H226ZM106.35,70.23V179.61H215.74V70.23Z"/><path class="cls-1" d="M68,60q7.77,7.73,15.54,15.44c2.4,2.37,3.68,5,1,7.83-2.85,3-5.71,1.87-8.15-.8-1.42-1.55-2.66-3.26-4-4.91l-1.14.86v94.06c2.28-2.23,4-4,5.88-5.73,2.24-2.09,4.76-2.57,7.11-.35,2.53,2.39,2.19,5.08-.12,7.45C79.64,178.5,75,183,70.44,187.64c-3.08,3.14-6,3-9-.09C56.33,182.33,51.15,177.18,46,172v-4c7-8,9.92,2.08,14.71,3.69V78C55.84,80.54,53,89.61,46,82V78L64,60Z"/><path class="cls-1" d="M114,240c-5.18-5.15-10.33-10.34-15.56-15.44-3.09-3-3.27-5.91-.12-9,4.52-4.43,9-8.93,13.43-13.39,2.47-2.47,5.2-3.23,7.82-.47,2.43,2.56,1.68,5.27-.71,7.44a66.32,66.32,0,0,1-5.55,4.11l1.07,1.41h94.07c-2.18-2.22-4-4-5.66-5.81-2.27-2.44-2.62-5.08-.08-7.46,2.36-2.21,4.93-1.76,7.11.39,5.43,5.37,10.79,10.82,16.18,16.23v4l-18,18h-4c-7.93-7,2-9.94,3.75-14.71H114c2.59,4.86,11.59,7.74,4,14.71Z"/><path class="cls-2" d="M46,82c7,7.61,9.84-1.46,14.71-4v93.68C55.92,170.08,53,160,46,168Z"/><path class="cls-2" d="M118,240c7.59-7-1.41-9.85-4-14.71h93.75C206,230.06,196.07,233,204,240Z"/><path class="cls-2" d="M64,60,46,78V60Z"/></svg>